<svg width="40" height="40" viewBox="0 0 40 40" fill="none" xmlns="http://www.w3.org/2000/svg">
<path d="M29.946 26.7035C29.2785 26.9133 28.5538 27.0849 27.8291 27.1993L21.6691 28.1529L12.5912 29.5451C11.3516 29.7358 10.2645 28.6678 10.4552 27.4091L11.8474 18.3312L12.801 12.1712C12.9154 11.4274 13.087 10.7218 13.2968 10.0543C13.9452 8.01369 15.0514 6.27821 16.4436 4.88601C16.5008 4.8288 16.558 4.77158 16.6343 4.71436C18.4079 3.01703 20.6202 1.85368 22.985 1.31969C27.1044 0.40427 31.6815 1.41505 35.1334 4.86694C38.5853 8.31883 39.596 12.8959 38.6806 17.0153C38.1466 19.3801 36.9833 21.5924 35.2859 23.366C33.8556 24.8536 32.0629 26.0169 29.946 26.7035Z" fill="#FFDD08" stroke="black" stroke-width="2" stroke-miterlimit="10"/>
<path d="M5.91626 34.0077L10.7794 29.1445" stroke="black" stroke-width="2" stroke-miterlimit="10"/>
<path d="M6.86411 29.8446L10.0467 33.0271C10.5052 33.4856 10.5052 34.2139 10.0467 34.6724L7.2417 37.4773C5.90665 38.8124 3.749 38.8124 2.41395 37.4773C1.0789 36.1423 1.07889 33.9846 2.41394 32.6496L5.2189 29.8446C5.6774 29.3861 6.40561 29.3861 6.86411 29.8446V29.8446Z" fill="#FFDD08" stroke="black" stroke-width="2" stroke-miterlimit="10"/>
</svg>
