<svg width="292" height="131" viewBox="0 0 292 131" fill="none" xmlns="http://www.w3.org/2000/svg">
<path d="M276.309 106.411C274.369 106.411 272.525 106.572 270.83 106.861C270.83 106.711 270.862 106.561 270.862 106.411C270.862 98.1938 261.951 91.5385 250.962 91.5385C248.84 91.5385 246.804 91.7846 244.896 92.2447C239.556 86.4132 229.302 82.283 217.268 81.641V81.5554C217.268 68.3944 209.71 56.8063 198.252 50.0118C195.725 38.2311 185.215 29.4036 172.616 29.4036C172.541 29.4036 172.477 29.4036 172.403 29.4036C172.328 29.4036 172.254 29.4036 172.179 29.4036C172.094 29.4036 172.019 29.4036 171.934 29.4036C171.891 29.318 171.838 29.2324 171.806 29.1468C171.806 29.1361 171.827 29.1147 171.838 29.0933C171.827 29.104 171.817 29.1254 171.806 29.1361L171.785 29.104C174.385 26.1722 175.942 22.5235 175.942 18.5538C175.942 8.9024 166.817 1.07001 155.572 1.07001C149.763 1.07001 144.539 3.16721 140.819 6.5163C137.984 6.0027 135.063 5.7031 132.057 5.7031C108.298 5.7031 89.0367 22.684 89.0367 43.6346C89.0367 44.0305 89.058 44.4157 89.0686 44.8009C72.9518 45.9351 60.3526 55.5651 60.3526 67.2816C60.3526 73.0596 63.4225 78.324 68.4536 82.3258C59.1694 83.8238 51.4628 87.4618 47.0818 92.2554C45.1738 91.7952 43.1379 91.5491 41.0167 91.5491C30.027 91.5491 21.1158 98.2045 21.1158 106.422C21.1158 106.572 21.1478 106.722 21.1478 106.872C19.453 106.583 17.6089 106.422 15.6689 106.422C7.58922 106.422 1.04443 109.226 1.04443 112.682C1.04443 116.138 7.58922 118.941 15.6689 118.941C16.9374 118.941 18.1632 118.866 19.3357 118.738C22.267 118.417 24.8253 117.721 26.7439 116.769C30.3574 119.551 35.4099 121.284 41.0167 121.284C43.7028 121.284 46.261 120.889 48.5954 120.161C48.6274 120.182 48.7766 120.129 49.0005 120.043C49.7573 120.257 50.642 120.386 51.5907 120.386C54.3408 120.386 56.5686 119.358 56.5686 118.096C56.5686 117.539 56.1209 117.047 55.4174 116.651C55.4387 116.63 55.4706 116.619 55.492 116.598C61.5571 119.519 69.4023 121.284 77.9724 121.284C84.6877 121.284 90.966 120.204 96.285 118.321C102.009 125.404 110.75 129.941 120.545 129.941C129.83 129.941 138.165 125.875 143.879 119.412C147.918 122.012 152.726 123.531 157.885 123.531C163.044 123.531 167.841 122.012 171.881 119.412C172.787 119.465 173.693 119.498 174.609 119.498C180.536 119.498 186.164 118.417 191.291 116.48C197.388 119.476 205.319 121.284 213.985 121.284C222.651 121.284 230.4 119.519 236.465 116.598C240.089 119.476 245.227 121.284 250.94 121.284C256.654 121.284 261.6 119.551 265.213 116.769C267.899 118.096 271.854 118.941 276.288 118.941C279.72 118.941 282.865 118.438 285.359 117.593C288.738 116.448 290.913 114.672 290.913 112.682C290.913 109.226 284.368 106.422 276.288 106.422L276.309 106.411Z" fill="white" stroke="black" stroke-width="2" stroke-linecap="round" stroke-linejoin="round"/>
<path d="M209.615 60.6262H202.494" stroke="black" stroke-width="2" stroke-miterlimit="10" stroke-linecap="round"/>
<path d="M216.202 74.5148H212.77" stroke="black" stroke-width="2" stroke-miterlimit="10" stroke-linecap="round"/>
<path d="M270.266 107.021H266.823" stroke="black" stroke-width="2" stroke-miterlimit="10" stroke-linecap="round"/>
<path d="M213.26 65.5054H202.494" stroke="black" stroke-width="2" stroke-miterlimit="10" stroke-linecap="round"/>
<path d="M214.699 70.0421H208.325" stroke="black" stroke-width="2" stroke-miterlimit="10" stroke-linecap="round"/>
<path d="M192.72 39.3439H186.356" stroke="black" stroke-width="2" stroke-miterlimit="10" stroke-linecap="round"/>
<path d="M204.967 70.0421H201.055" stroke="black" stroke-width="2" stroke-miterlimit="10" stroke-linecap="round"/>
<path d="M195.299 43.5168H191.376" stroke="black" stroke-width="2" stroke-miterlimit="10" stroke-linecap="round"/>
<path d="M184.789 60.6262H177.668" stroke="black" stroke-width="2" stroke-miterlimit="10" stroke-linecap="round"/>
<path d="M144.316 119.305H137.195" stroke="black" stroke-width="2" stroke-miterlimit="10" stroke-linecap="round"/>
<path d="M190.151 74.5148H186.718" stroke="black" stroke-width="2" stroke-miterlimit="10" stroke-linecap="round"/>
<path d="M128.348 123.392H124.916" stroke="black" stroke-width="2" stroke-miterlimit="10" stroke-linecap="round"/>
<path d="M214.976 98.5042H211.544" stroke="black" stroke-width="2" stroke-miterlimit="10" stroke-linecap="round"/>
<path d="M187.209 65.5054H176.443" stroke="black" stroke-width="2" stroke-miterlimit="10" stroke-linecap="round"/>
<path d="M150.541 115.207H139.775" stroke="black" stroke-width="2" stroke-miterlimit="10" stroke-linecap="round"/>
<path d="M188.648 70.0421H182.273" stroke="black" stroke-width="2" stroke-miterlimit="10" stroke-linecap="round"/>
<path d="M138.911 123.392H132.548" stroke="black" stroke-width="2" stroke-miterlimit="10" stroke-linecap="round"/>
<path d="M178.916 70.0421H160.582" stroke="black" stroke-width="2" stroke-miterlimit="10" stroke-linecap="round"/>
<path d="M244.897 91.4742H233.342" stroke="black" stroke-width="2" stroke-miterlimit="10" stroke-linecap="round"/>
<path d="M269.647 102.763H258.093" stroke="black" stroke-width="2" stroke-miterlimit="10" stroke-linecap="round"/>
<path d="M237.872 96.011H231.498" stroke="black" stroke-width="2" stroke-miterlimit="10" stroke-linecap="round"/>
<path d="M267.643 98.5042H261.28" stroke="black" stroke-width="2" stroke-miterlimit="10" stroke-linecap="round"/>
<path d="M228.14 96.011H224.229" stroke="black" stroke-width="2" stroke-miterlimit="10" stroke-linecap="round"/>
<path d="M253.765 102.763H249.843" stroke="black" stroke-width="2" stroke-miterlimit="10" stroke-linecap="round"/>
<path d="M217.268 81.5554H202.494" stroke="black" stroke-width="2" stroke-miterlimit="10" stroke-linecap="round"/>
<path d="M214.923 98.5041C214.923 98.5041 214.06 83.9842 192.347 77.6498C190.961 77.2432 189.97 75.9699 190.002 74.5254C190.151 67.5918 187.539 60.5299 180.909 58.1331" stroke="black" stroke-width="2" stroke-miterlimit="10" stroke-linecap="round"/>
<path d="M52.2305 88.0716C52.2305 88.0716 64.9576 78.142 97.3512 81.566" stroke="black" stroke-width="2" stroke-miterlimit="10" stroke-linecap="round"/>
<path d="M250.962 91.5384C250.962 91.5384 240.707 90.2758 237.872 98.5041" stroke="black" stroke-width="2" stroke-miterlimit="10" stroke-linecap="round"/>
<path d="M173.331 29.3929C173.331 29.3929 162.447 29.3929 152.993 36.5084" stroke="black" stroke-width="2" stroke-miterlimit="10" stroke-linecap="round"/>
<path d="M198.049 50.0332C198.049 50.0332 188.573 44.6618 176.848 46.2026" stroke="black" stroke-width="2" stroke-miterlimit="10" stroke-linecap="round"/>
<path d="M173.714 24.2034H163.162" stroke="black" stroke-width="2" stroke-miterlimit="10" stroke-linecap="round"/>
<path d="M171.817 28.3657H159.079" stroke="black" stroke-width="2" stroke-miterlimit="10" stroke-linecap="round"/>
<path d="M160.582 32.2284H145.158" stroke="black" stroke-width="2" stroke-miterlimit="10" stroke-linecap="round"/>
<path d="M60.3955 68.3301H80.3816" stroke="black" stroke-width="2" stroke-miterlimit="10" stroke-linecap="round"/>
<path d="M60.6191 88.0717H67.3025" stroke="black" stroke-width="2" stroke-miterlimit="10" stroke-linecap="round"/>
<path d="M61.4399 63.1085H70.6069" stroke="black" stroke-width="2" stroke-miterlimit="10" stroke-linecap="round"/>
<path d="M62.3032 73.541H72.3016" stroke="black" stroke-width="2" stroke-miterlimit="10" stroke-linecap="round"/>
<path d="M64.7871 78.3132H69.7863" stroke="black" stroke-width="2" stroke-miterlimit="10" stroke-linecap="round"/>
<path d="M85.4873 68.3301H89.1754" stroke="black" stroke-width="2" stroke-miterlimit="10" stroke-linecap="round"/>
<path d="M53.3281 88.0717H57.0162" stroke="black" stroke-width="2" stroke-miterlimit="10" stroke-linecap="round"/>
<path d="M76.6934 73.541H86.276" stroke="black" stroke-width="2" stroke-miterlimit="10" stroke-linecap="round"/>
<path d="M47.4336 92.3195H57.0163" stroke="black" stroke-width="2" stroke-miterlimit="10" stroke-linecap="round"/>
<path d="M137.067 32.2284H140.755" stroke="black" stroke-width="2" stroke-miterlimit="10" stroke-linecap="round"/>
<path d="M149.315 36.5191H152.992" stroke="black" stroke-width="2" stroke-miterlimit="10" stroke-linecap="round"/>
<path d="M140.852 36.5191H145.765" stroke="black" stroke-width="2" stroke-miterlimit="10" stroke-linecap="round"/>
<path d="M145.883 41.0131H148.345" stroke="black" stroke-width="2" stroke-miterlimit="10" stroke-linecap="round"/>
</svg>
