<svg width="89" height="89" viewBox="0 0 89 89" fill="none" xmlns="http://www.w3.org/2000/svg">
<path d="M68.199 54.9441C66.7767 55.4075 65.2898 55.763 63.7383 56L50.798 57.9933L31.7486 60.924C29.1304 61.3227 26.8785 59.0708 27.2772 56.4526L30.2079 37.4139L32.2012 24.4737C32.4382 22.9222 32.7938 21.4353 33.2571 20.013C34.6362 15.7463 36.942 12.0937 39.8727 9.16305C40.0019 9.03376 40.1205 8.91524 40.2605 8.79672C43.967 5.23034 48.6216 2.78452 53.5779 1.67474C62.2299 -0.253909 71.8192 1.86868 79.0813 9.11996C86.3325 16.3712 88.4659 25.9714 86.5373 34.6233C85.4275 39.5796 82.9817 44.2342 79.4153 47.9407C76.4307 51.0545 72.6489 53.5004 68.199 54.9334V54.9441Z" fill="#FF8692" stroke="black" stroke-width="2" stroke-miterlimit="10"/>
<path d="M79.4045 47.9407L40.2498 8.78595C43.9562 5.21958 48.6108 2.77375 53.5671 1.66397L86.5265 34.6234C85.4167 39.5796 82.9709 44.2343 79.4045 47.9407V47.9407Z" fill="#FBE64D" stroke="black" stroke-width="2" stroke-miterlimit="10"/>
<path d="M68.1988 54.9441C66.7766 55.4074 65.2897 55.763 63.7382 56L50.7979 57.9933L30.2185 37.4139L32.2118 24.4736C32.4488 22.9221 32.8044 21.4352 33.2677 20.013L68.1988 54.9441Z" fill="#FBE64D" stroke="black" stroke-width="2" stroke-miterlimit="10"/>
<path d="M44.1173 54.6209L38.8485 49.3521C38.4283 48.9319 37.7495 48.9319 37.3293 49.3521C36.9091 49.7724 36.9091 50.4511 37.3293 50.8714L41.1112 54.6532C40.163 54.8148 39.1825 54.5024 38.5037 53.8128L35.2283 50.5373C34.808 50.1171 34.1292 50.1171 33.709 50.5373C33.2888 50.9576 33.2888 51.6364 33.709 52.0566L35.5838 53.9313C36.1656 54.5132 35.8424 55.526 35.0343 55.6553C34.7111 55.7091 34.3771 55.6014 34.1508 55.3751L33.4936 54.7179C33.0733 54.2977 32.3945 54.2977 31.9743 54.7179C31.5541 55.1381 31.5541 55.8169 31.9743 56.2371L33.3966 57.6593C33.6444 57.9071 33.9892 58.0149 34.334 57.961L43.557 56.4418C43.9557 56.3772 44.2789 56.097 44.4082 55.7091C44.5375 55.3213 44.4297 54.901 44.1496 54.6209H44.1173Z" fill="black"/>
<path d="M61.4749 51.5502L50.9913 41.0666C50.5711 40.6464 49.8923 40.6464 49.472 41.0666C49.0518 41.4868 49.0518 42.1656 49.472 42.5858L58.4796 51.5933L57.0035 51.8411C56.6802 51.895 56.3462 51.7873 56.1199 51.561L52.8445 48.2855C52.4243 47.8653 51.7455 47.8653 51.3253 48.2855C50.9051 48.7057 50.9051 49.3845 51.3253 49.8047L53.8788 52.3583L52.4027 52.6061C52.0795 52.66 51.7455 52.5522 51.5192 52.326L47.371 48.1778C46.9508 47.7576 46.272 47.7576 45.8518 48.1778C45.4316 48.598 45.4316 49.2768 45.8518 49.697L50.3986 54.2438C50.8727 54.7179 51.5515 54.9442 52.2195 54.8257L60.9254 53.3927C61.3241 53.328 61.6473 53.0479 61.7766 52.66C61.9059 52.2721 61.7981 51.8519 61.5072 51.5718L61.4749 51.5502Z" fill="black"/>
<path d="M70.3102 24.7754L79.6841 34.1493C80.1582 34.6234 80.3306 35.3237 80.1474 35.9702C80.072 36.218 79.9966 36.4658 79.9212 36.7136L73.6827 30.4752C73.2625 30.055 72.5837 30.055 72.1635 30.4752C71.7433 30.8954 71.7433 31.5742 72.1635 31.9944L78.4989 38.3298C78.8221 38.6531 78.8976 39.1379 78.6713 39.5366C78.5205 39.8059 78.348 40.0753 78.1756 40.3447L68.1876 30.3567C67.7674 29.9365 67.0886 29.9365 66.6684 30.3567C66.2482 30.7769 66.2482 31.4557 66.6684 31.8759L77.5507 42.7582C77.7662 42.9737 78.0787 43.0922 78.3912 43.0706C78.7036 43.0491 78.9838 42.8982 79.1777 42.6397L79.4147 42.3272C81.0956 40.0753 82.2161 37.4248 82.6471 34.6449C82.701 34.3109 82.5825 33.9769 82.3454 33.7399L71.8618 23.2562C71.4416 22.836 70.7628 22.836 70.3426 23.2562C69.9223 23.6764 69.9223 24.3552 70.3426 24.7754H70.3102Z" fill="black"/>
<path d="M74.7279 47.6067C74.771 47.2727 74.6525 46.9495 74.4154 46.7124L61.7015 33.9984C61.2813 33.5782 60.6025 33.5782 60.1823 33.9984C59.7621 34.4187 59.7621 35.0974 60.1823 35.5177L71.9265 47.2619L71.3124 47.639L68.2093 44.536C67.7891 44.1158 67.1103 44.1158 66.6901 44.536C66.2699 44.9562 66.2699 45.635 66.6901 46.0552L69.4161 48.7811L68.8019 49.1582L60.8395 41.1959C60.4193 40.7756 59.7405 40.7756 59.3203 41.1959C58.9001 41.6161 58.9001 42.2949 59.3203 42.7151L67.8861 51.2808C68.2309 51.6256 68.7804 51.701 69.2006 51.4425L74.243 48.404C74.5232 48.2316 74.7171 47.9407 74.7602 47.6067H74.7279Z" fill="black"/>
<path d="M77.4755 19.0541C77.0553 18.6339 76.3765 18.6339 75.9563 19.0541C75.5361 19.4743 75.5361 20.1531 75.9563 20.5733L83.283 27.9C83.5524 28.1694 83.951 28.2771 84.3173 28.1801C84.6837 28.0832 84.9746 27.803 85.0823 27.4259C85.1254 27.2751 85.5564 25.6912 85.7934 23.5471C86.149 23.1808 86.1706 22.6313 85.9012 22.2218C86.0736 19.2373 85.7396 15.5955 83.6493 13.0311C83.2722 12.557 82.5934 12.5032 82.1301 12.8695C81.6668 13.2466 81.6022 13.9254 81.9685 14.3887C82.5395 15.0891 82.9382 15.9079 83.2183 16.7807C83.5416 17.7827 82.2594 18.5261 81.5159 17.7827L80.4924 16.7591C80.0722 16.3389 79.3934 16.3389 78.9732 16.7591C78.553 17.1793 78.553 17.8581 78.9732 18.2783L83.3261 22.6312C83.5416 22.8467 83.6601 23.1592 83.617 23.4717C83.5524 24.0212 83.4769 24.5276 83.4015 24.9693L77.4755 19.0433V19.0541Z" fill="black"/>
<path d="M14.3994 66.9312L21.081 73.6128C22.0334 74.5652 22.0334 76.1042 21.081 77.0565L15.1994 82.9382C12.4033 85.7343 7.86247 85.7343 5.06639 82.9382C2.2703 80.1421 2.2703 75.6013 5.06639 72.8052L10.9481 66.9236C11.9004 65.9712 13.4394 65.9712 14.3918 66.9236L14.3994 66.9312Z" fill="#FF8692" stroke="black" stroke-width="2" stroke-miterlimit="10"/>
<path d="M17.7307 70.2764L27.9342 60.0621" stroke="black" stroke-width="2" stroke-miterlimit="10"/>
<path d="M18.4314 79.7041L14.6279 75.9006" stroke="black" stroke-width="2" stroke-miterlimit="10" stroke-linecap="round"/>
<path d="M14.1431 82.6133L8.7666 77.2368" stroke="black" stroke-width="2" stroke-miterlimit="10" stroke-linecap="round"/>
</svg>
