<svg width="357" height="104" viewBox="0 0 357 104" fill="none" xmlns="http://www.w3.org/2000/svg">
<g filter="url(#filter0_d_827_42)">
<path d="M71.1313 24.0253C59.0315 24.0253 49.1943 33.8624 49.1943 45.9623C49.1943 58.0621 59.0315 67.8993 71.1313 67.8993C83.2312 67.8993 93.0683 58.0621 93.0683 45.9623C93.0683 33.8624 83.2312 24.0253 71.1313 24.0253V24.0253ZM71.1313 56.7476C65.1838 56.7476 60.346 51.9098 60.346 45.9623C60.346 40.0147 65.1838 35.1769 71.1313 35.1769C77.0789 35.1769 81.9167 40.0147 81.9167 45.9623C81.9167 51.9098 77.0789 56.7476 71.1313 56.7476Z" fill="white"/>
<path d="M71.1313 24.0253C59.0315 24.0253 49.1943 33.8624 49.1943 45.9623C49.1943 58.0621 59.0315 67.8993 71.1313 67.8993C83.2312 67.8993 93.0683 58.0621 93.0683 45.9623C93.0683 33.8624 83.2312 24.0253 71.1313 24.0253V24.0253ZM71.1313 56.7476C65.1838 56.7476 60.346 51.9098 60.346 45.9623C60.346 40.0147 65.1838 35.1769 71.1313 35.1769C77.0789 35.1769 81.9167 40.0147 81.9167 45.9623C81.9167 51.9098 77.0789 56.7476 71.1313 56.7476Z" stroke="black" stroke-width="2" stroke-miterlimit="10"/>
</g>
<g filter="url(#filter1_d_827_42)">
<path d="M42.4821 23.6912H36.1143C34.7998 23.6912 33.7223 24.7579 33.7223 26.0832V26.8805C30.5331 25.0704 26.8589 24.036 22.937 24.036C10.8372 24.036 1 33.8732 1 45.973C1 58.0728 10.8372 67.91 22.937 67.91C26.8589 67.91 30.5331 66.8756 33.7223 65.0655V76.0987C33.7223 81.9062 29.0462 86.647 23.2602 86.7439C17.3019 86.8409 12.421 81.8415 12.421 75.8832V73.3835C12.421 72.069 11.3543 70.9915 10.0291 70.9915H3.66132C2.34682 70.9915 1.26936 72.0582 1.26936 73.3835V75.7647C1.26936 87.7244 10.7725 97.7124 22.7323 97.8848C34.9075 98.068 44.8632 88.22 44.8632 76.0879V26.0939C44.8632 24.7794 43.7966 23.702 42.4713 23.702L42.4821 23.6912ZM22.937 56.7476C16.9894 56.7476 12.1517 51.9098 12.1517 45.9622C12.1517 40.0147 16.9894 35.1769 22.937 35.1769C28.8846 35.1769 33.7223 40.0147 33.7223 45.9622C33.7223 51.9098 28.8846 56.7476 22.937 56.7476Z" fill="white"/>
<path d="M42.4821 23.6912H36.1143C34.7998 23.6912 33.7223 24.7579 33.7223 26.0832V26.8805C30.5331 25.0704 26.8589 24.036 22.937 24.036C10.8372 24.036 1 33.8732 1 45.973C1 58.0728 10.8372 67.91 22.937 67.91C26.8589 67.91 30.5331 66.8756 33.7223 65.0655V76.0987C33.7223 81.9062 29.0462 86.647 23.2602 86.7439C17.3019 86.8409 12.421 81.8415 12.421 75.8832V73.3835C12.421 72.069 11.3543 70.9915 10.0291 70.9915H3.66132C2.34682 70.9915 1.26936 72.0582 1.26936 73.3835V75.7647C1.26936 87.7244 10.7725 97.7124 22.7323 97.8848C34.9075 98.068 44.8632 88.22 44.8632 76.0879V26.0939C44.8632 24.7794 43.7966 23.702 42.4713 23.702L42.4821 23.6912ZM22.937 56.7476C16.9894 56.7476 12.1517 51.9098 12.1517 45.9622C12.1517 40.0147 16.9894 35.1769 22.937 35.1769C28.8846 35.1769 33.7223 40.0147 33.7223 45.9622C33.7223 51.9098 28.8846 56.7476 22.937 56.7476Z" stroke="black" stroke-width="2" stroke-miterlimit="10"/>
</g>
<g filter="url(#filter2_d_827_42)">
<path d="M168.555 24.0253C156.455 24.0253 146.618 33.8624 146.618 45.9623C146.618 58.0621 156.455 67.8993 168.555 67.8993C180.655 67.8993 190.492 58.0621 190.492 45.9623C190.492 33.8624 180.655 24.0253 168.555 24.0253V24.0253ZM168.555 56.7476C162.608 56.7476 157.77 51.9098 157.77 45.9623C157.77 40.0147 162.608 35.1769 168.555 35.1769C174.503 35.1769 179.341 40.0147 179.341 45.9623C179.341 51.9098 174.503 56.7476 168.555 56.7476V56.7476Z" fill="white"/>
<path d="M168.555 24.0253C156.455 24.0253 146.618 33.8624 146.618 45.9623C146.618 58.0621 156.455 67.8993 168.555 67.8993C180.655 67.8993 190.492 58.0621 190.492 45.9623C190.492 33.8624 180.655 24.0253 168.555 24.0253V24.0253ZM168.555 56.7476C162.608 56.7476 157.77 51.9098 157.77 45.9623C157.77 40.0147 162.608 35.1769 168.555 35.1769C174.503 35.1769 179.341 40.0147 179.341 45.9623C179.341 51.9098 174.503 56.7476 168.555 56.7476V56.7476Z" stroke="black" stroke-width="2" stroke-miterlimit="10"/>
</g>
<g filter="url(#filter3_d_827_42)">
<path d="M138.882 23.6912H132.514C131.2 23.6912 130.122 24.7579 130.122 26.0832V26.8805C126.933 25.0704 123.259 24.036 119.337 24.036C107.248 24.036 97.3999 33.8732 97.3999 45.973C97.3999 58.0728 107.237 67.91 119.337 67.91C123.259 67.91 126.933 66.8756 130.122 65.0655V76.0987C130.122 82.057 125.209 86.884 119.229 86.7439C113.497 86.6147 108.821 81.6153 108.821 75.8832V73.3835C108.821 72.069 107.754 70.9915 106.429 70.9915H100.061C98.7467 70.9915 97.6693 72.0582 97.6693 73.3835V75.7647C97.6693 87.4551 106.752 97.3246 118.432 97.8633C130.92 98.4451 141.263 88.4571 141.263 76.0879V26.0939C141.263 24.7794 140.196 23.702 138.871 23.702L138.882 23.6912ZM119.337 56.7476C113.389 56.7476 108.552 51.9098 108.552 45.9622C108.552 40.0147 113.389 35.1769 119.337 35.1769C125.284 35.1769 130.122 40.0147 130.122 45.9622C130.122 51.9098 125.284 56.7476 119.337 56.7476Z" fill="white"/>
<path d="M138.882 23.6912H132.514C131.2 23.6912 130.122 24.7579 130.122 26.0832V26.8805C126.933 25.0704 123.259 24.036 119.337 24.036C107.248 24.036 97.3999 33.8732 97.3999 45.973C97.3999 58.0728 107.237 67.91 119.337 67.91C123.259 67.91 126.933 66.8756 130.122 65.0655V76.0987C130.122 82.057 125.209 86.884 119.229 86.7439C113.497 86.6147 108.821 81.6153 108.821 75.8832V73.3835C108.821 72.069 107.754 70.9915 106.429 70.9915H100.061C98.7467 70.9915 97.6693 72.0582 97.6693 73.3835V75.7647C97.6693 87.4551 106.752 97.3246 118.432 97.8633C130.92 98.4451 141.263 88.4571 141.263 76.0879V26.0939C141.263 24.7794 140.196 23.702 138.871 23.702L138.882 23.6912ZM119.337 56.7476C113.389 56.7476 108.552 51.9098 108.552 45.9622C108.552 40.0147 113.389 35.1769 119.337 35.1769C125.284 35.1769 130.122 40.0147 130.122 45.9622C130.122 51.9098 125.284 56.7476 119.337 56.7476Z" stroke="black" stroke-width="2" stroke-miterlimit="10"/>
</g>
<g filter="url(#filter4_d_827_42)">
<path d="M219.26 23.7774C215.349 23.7774 211.686 24.8333 208.507 26.665C208.475 25.3505 207.408 24.2946 206.083 24.2946H199.931C198.595 24.2946 197.506 25.3828 197.506 26.7189V94.3508C197.506 95.6868 198.595 96.7751 199.931 96.7751H206.083C207.419 96.7751 208.507 95.6868 208.507 94.3508V64.2251C211.675 66.046 215.338 67.1019 219.249 67.1019C231.188 67.1019 240.906 57.3833 240.906 45.4451C240.906 33.5069 231.188 23.7882 219.249 23.7882L219.26 23.7774ZM219.26 56.0796C213.388 56.0796 208.604 51.3064 208.604 45.4235C208.604 39.5406 213.377 34.7675 219.26 34.7675C225.143 34.7675 229.916 39.5406 229.916 45.4235C229.916 51.3064 225.143 56.0796 219.26 56.0796Z" fill="white"/>
<path d="M219.26 23.7774C215.349 23.7774 211.686 24.8333 208.507 26.665C208.475 25.3505 207.408 24.2946 206.083 24.2946H199.931C198.595 24.2946 197.506 25.3828 197.506 26.7189V94.3508C197.506 95.6868 198.595 96.7751 199.931 96.7751H206.083C207.419 96.7751 208.507 95.6868 208.507 94.3508V64.2251C211.675 66.046 215.338 67.1019 219.249 67.1019C231.188 67.1019 240.906 57.3833 240.906 45.4451C240.906 33.5069 231.188 23.7882 219.249 23.7882L219.26 23.7774ZM219.26 56.0796C213.388 56.0796 208.604 51.3064 208.604 45.4235C208.604 39.5406 213.377 34.7675 219.26 34.7675C225.143 34.7675 229.916 39.5406 229.916 45.4235C229.916 51.3064 225.143 56.0796 219.26 56.0796Z" stroke="black" stroke-width="2" stroke-miterlimit="10"/>
</g>
<g filter="url(#filter5_d_827_42)">
<path d="M268.188 23.7774C256.249 23.7774 246.531 33.4961 246.531 45.4343C246.531 57.3725 256.249 67.0912 268.188 67.0912C280.126 67.0912 289.844 57.3725 289.844 45.4343C289.844 33.4961 280.126 23.7774 268.188 23.7774ZM268.188 56.0796C262.315 56.0796 257.532 51.3064 257.532 45.4235C257.532 39.5406 262.305 34.7675 268.188 34.7675C274.071 34.7675 278.844 39.5406 278.844 45.4235C278.844 51.3064 274.071 56.0796 268.188 56.0796Z" fill="white"/>
<path d="M268.188 23.7774C256.249 23.7774 246.531 33.4961 246.531 45.4343C246.531 57.3725 256.249 67.0912 268.188 67.0912C280.126 67.0912 289.844 57.3725 289.844 45.4343C289.844 33.4961 280.126 23.7774 268.188 23.7774ZM268.188 56.0796C262.315 56.0796 257.532 51.3064 257.532 45.4235C257.532 39.5406 262.305 34.7675 268.188 34.7675C274.071 34.7675 278.844 39.5406 278.844 45.4235C278.844 51.3064 274.071 56.0796 268.188 56.0796Z" stroke="black" stroke-width="2" stroke-miterlimit="10"/>
</g>
<g filter="url(#filter6_d_827_42)">
<path d="M317.115 23.7774C305.177 23.7774 295.458 33.4961 295.458 45.4343C295.458 57.3725 305.177 67.0912 317.115 67.0912C329.053 67.0912 338.772 57.3725 338.772 45.4343C338.772 33.4961 329.053 23.7774 317.115 23.7774ZM317.115 56.0796C311.243 56.0796 306.459 51.3064 306.459 45.4235C306.459 39.5406 311.232 34.7675 317.115 34.7675C322.998 34.7675 327.771 39.5406 327.771 45.4235C327.771 51.3064 322.998 56.0796 317.115 56.0796Z" fill="white"/>
<path d="M317.115 23.7774C305.177 23.7774 295.458 33.4961 295.458 45.4343C295.458 57.3725 305.177 67.0912 317.115 67.0912C329.053 67.0912 338.772 57.3725 338.772 45.4343C338.772 33.4961 329.053 23.7774 317.115 23.7774ZM317.115 56.0796C311.243 56.0796 306.459 51.3064 306.459 45.4235C306.459 39.5406 311.232 34.7675 317.115 34.7675C322.998 34.7675 327.771 39.5406 327.771 45.4235C327.771 51.3064 322.998 56.0796 317.115 56.0796Z" stroke="black" stroke-width="2" stroke-miterlimit="10"/>
</g>
<g filter="url(#filter7_d_827_42)">
<path d="M353.576 1H347.424C346.085 1 344.999 2.08539 344.999 3.42428V64.7638C344.999 66.1027 346.085 67.1881 347.424 67.1881H353.576C354.915 67.1881 356 66.1027 356 64.7638V3.42428C356 2.08539 354.915 1 353.576 1Z" fill="white"/>
<path d="M353.576 1H347.424C346.085 1 344.999 2.08539 344.999 3.42428V64.7638C344.999 66.1027 346.085 67.1881 347.424 67.1881H353.576C354.915 67.1881 356 66.1027 356 64.7638V3.42428C356 2.08539 354.915 1 353.576 1Z" stroke="black" stroke-width="2" stroke-miterlimit="10"/>
</g>
<defs>
<filter id="filter0_d_827_42" x="48.1943" y="23.0253" width="45.874" height="50.874" filterUnits="userSpaceOnUse" color-interpolation-filters="sRGB">
<feFlood flood-opacity="0" result="BackgroundImageFix"/>
<feColorMatrix in="SourceAlpha" type="matrix" values="0 0 0 0 0 0 0 0 0 0 0 0 0 0 0 0 0 0 127 0" result="hardAlpha"/>
<feOffset dy="5"/>
<feComposite in2="hardAlpha" operator="out"/>
<feColorMatrix type="matrix" values="0 0 0 0 0 0 0 0 0 0 0 0 0 0 0 0 0 0 1 0"/>
<feBlend mode="normal" in2="BackgroundImageFix" result="effect1_dropShadow_827_42"/>
<feBlend mode="normal" in="SourceGraphic" in2="effect1_dropShadow_827_42" result="shape"/>
</filter>
<filter id="filter1_d_827_42" x="0" y="22.6912" width="45.8633" height="81.1961" filterUnits="userSpaceOnUse" color-interpolation-filters="sRGB">
<feFlood flood-opacity="0" result="BackgroundImageFix"/>
<feColorMatrix in="SourceAlpha" type="matrix" values="0 0 0 0 0 0 0 0 0 0 0 0 0 0 0 0 0 0 127 0" result="hardAlpha"/>
<feOffset dy="5"/>
<feComposite in2="hardAlpha" operator="out"/>
<feColorMatrix type="matrix" values="0 0 0 0 0 0 0 0 0 0 0 0 0 0 0 0 0 0 1 0"/>
<feBlend mode="normal" in2="BackgroundImageFix" result="effect1_dropShadow_827_42"/>
<feBlend mode="normal" in="SourceGraphic" in2="effect1_dropShadow_827_42" result="shape"/>
</filter>
<filter id="filter2_d_827_42" x="145.618" y="23.0253" width="45.874" height="50.874" filterUnits="userSpaceOnUse" color-interpolation-filters="sRGB">
<feFlood flood-opacity="0" result="BackgroundImageFix"/>
<feColorMatrix in="SourceAlpha" type="matrix" values="0 0 0 0 0 0 0 0 0 0 0 0 0 0 0 0 0 0 127 0" result="hardAlpha"/>
<feOffset dy="5"/>
<feComposite in2="hardAlpha" operator="out"/>
<feColorMatrix type="matrix" values="0 0 0 0 0 0 0 0 0 0 0 0 0 0 0 0 0 0 1 0"/>
<feBlend mode="normal" in2="BackgroundImageFix" result="effect1_dropShadow_827_42"/>
<feBlend mode="normal" in="SourceGraphic" in2="effect1_dropShadow_827_42" result="shape"/>
</filter>
<filter id="filter3_d_827_42" x="96.3999" y="22.6912" width="45.8633" height="81.1963" filterUnits="userSpaceOnUse" color-interpolation-filters="sRGB">
<feFlood flood-opacity="0" result="BackgroundImageFix"/>
<feColorMatrix in="SourceAlpha" type="matrix" values="0 0 0 0 0 0 0 0 0 0 0 0 0 0 0 0 0 0 127 0" result="hardAlpha"/>
<feOffset dy="5"/>
<feComposite in2="hardAlpha" operator="out"/>
<feColorMatrix type="matrix" values="0 0 0 0 0 0 0 0 0 0 0 0 0 0 0 0 0 0 1 0"/>
<feBlend mode="normal" in2="BackgroundImageFix" result="effect1_dropShadow_827_42"/>
<feBlend mode="normal" in="SourceGraphic" in2="effect1_dropShadow_827_42" result="shape"/>
</filter>
<filter id="filter4_d_827_42" x="196.506" y="22.7774" width="45.3999" height="79.9977" filterUnits="userSpaceOnUse" color-interpolation-filters="sRGB">
<feFlood flood-opacity="0" result="BackgroundImageFix"/>
<feColorMatrix in="SourceAlpha" type="matrix" values="0 0 0 0 0 0 0 0 0 0 0 0 0 0 0 0 0 0 127 0" result="hardAlpha"/>
<feOffset dy="5"/>
<feComposite in2="hardAlpha" operator="out"/>
<feColorMatrix type="matrix" values="0 0 0 0 0 0 0 0 0 0 0 0 0 0 0 0 0 0 1 0"/>
<feBlend mode="normal" in2="BackgroundImageFix" result="effect1_dropShadow_827_42"/>
<feBlend mode="normal" in="SourceGraphic" in2="effect1_dropShadow_827_42" result="shape"/>
</filter>
<filter id="filter5_d_827_42" x="245.531" y="22.7774" width="45.3137" height="50.3137" filterUnits="userSpaceOnUse" color-interpolation-filters="sRGB">
<feFlood flood-opacity="0" result="BackgroundImageFix"/>
<feColorMatrix in="SourceAlpha" type="matrix" values="0 0 0 0 0 0 0 0 0 0 0 0 0 0 0 0 0 0 127 0" result="hardAlpha"/>
<feOffset dy="5"/>
<feComposite in2="hardAlpha" operator="out"/>
<feColorMatrix type="matrix" values="0 0 0 0 0 0 0 0 0 0 0 0 0 0 0 0 0 0 1 0"/>
<feBlend mode="normal" in2="BackgroundImageFix" result="effect1_dropShadow_827_42"/>
<feBlend mode="normal" in="SourceGraphic" in2="effect1_dropShadow_827_42" result="shape"/>
</filter>
<filter id="filter6_d_827_42" x="294.458" y="22.7774" width="45.3137" height="50.3137" filterUnits="userSpaceOnUse" color-interpolation-filters="sRGB">
<feFlood flood-opacity="0" result="BackgroundImageFix"/>
<feColorMatrix in="SourceAlpha" type="matrix" values="0 0 0 0 0 0 0 0 0 0 0 0 0 0 0 0 0 0 127 0" result="hardAlpha"/>
<feOffset dy="5"/>
<feComposite in2="hardAlpha" operator="out"/>
<feColorMatrix type="matrix" values="0 0 0 0 0 0 0 0 0 0 0 0 0 0 0 0 0 0 1 0"/>
<feBlend mode="normal" in2="BackgroundImageFix" result="effect1_dropShadow_827_42"/>
<feBlend mode="normal" in="SourceGraphic" in2="effect1_dropShadow_827_42" result="shape"/>
</filter>
<filter id="filter7_d_827_42" x="343.999" y="0" width="13.0007" height="73.1881" filterUnits="userSpaceOnUse" color-interpolation-filters="sRGB">
<feFlood flood-opacity="0" result="BackgroundImageFix"/>
<feColorMatrix in="SourceAlpha" type="matrix" values="0 0 0 0 0 0 0 0 0 0 0 0 0 0 0 0 0 0 127 0" result="hardAlpha"/>
<feOffset dy="5"/>
<feComposite in2="hardAlpha" operator="out"/>
<feColorMatrix type="matrix" values="0 0 0 0 0 0 0 0 0 0 0 0 0 0 0 0 0 0 1 0"/>
<feBlend mode="normal" in2="BackgroundImageFix" result="effect1_dropShadow_827_42"/>
<feBlend mode="normal" in="SourceGraphic" in2="effect1_dropShadow_827_42" result="shape"/>
</filter>
</defs>
</svg>
