<svg width="1392" height="540" viewBox="0 0 1392 540" fill="none" xmlns="http://www.w3.org/2000/svg">
<path d="M810.31 132.096L810.319 132.497L810.604 132.78L810.614 132.791L810.881 133.057L811.258 133.081C815.815 133.361 819.814 134.598 822.643 136.377C825.491 138.168 827 140.397 827 142.652C827 145.069 825.264 147.458 822.024 149.299C818.814 151.124 814.314 152.284 809.292 152.284C807.207 152.284 805.223 152.075 803.361 151.705L803.264 151.686H803.166C802.684 151.686 802.218 151.667 801.729 151.646L801.008 151.615L800.752 152.289C798.498 158.213 790.788 162.844 781.281 162.844C779.242 162.844 777.274 162.625 775.417 162.227L774.766 162.087L774.386 162.634C772.245 165.715 767.542 168 761.88 168C755.215 168 749.949 164.848 748.517 161L748.241 160.257L747.454 160.356C746.189 160.516 744.876 160.606 743.544 160.606C735.572 160.606 728.835 157.558 725.59 153.307L725.137 152.714L724.44 152.978C723.462 153.35 722.402 153.563 721.246 153.563C720.091 153.563 718.992 153.34 718.004 152.96L717.696 152.841L717.377 152.929C715.949 153.326 714.27 153.563 712.461 153.563C708.619 153.563 705.52 152.52 704.154 151.236L703.669 150.78L703.062 151.051C701.351 151.813 699.174 152.274 696.877 152.274C694.583 152.274 692.473 151.824 690.765 151.087L690.407 150.933L690.039 151.061C688.753 151.51 686.935 151.8 684.895 151.8C682.794 151.8 680.939 151.498 679.644 151.039C678.993 150.807 678.537 150.555 678.264 150.325C678.13 150.212 678.061 150.123 678.028 150.065C678.012 150.037 678.005 150.019 678.003 150.009C678 150.001 678 149.996 678 149.995C678 149.993 678 149.989 678.003 149.98C678.005 149.97 678.012 149.951 678.028 149.924C678.061 149.865 678.131 149.775 678.265 149.662C678.539 149.431 678.995 149.177 679.646 148.945C680.94 148.484 682.795 148.179 684.895 148.179C684.995 148.179 685.098 148.184 685.226 148.189L685.234 148.189C685.353 148.194 685.495 148.2 685.64 148.2H686.878L686.618 146.99C686.566 146.748 686.537 146.522 686.537 146.313C686.537 145.014 687.321 143.694 688.869 142.59L689.59 142.076L689.168 141.298C689.1 141.175 689.082 141.08 689.082 141.013C689.082 140.871 689.153 140.622 689.532 140.276C689.911 139.93 690.517 139.569 691.356 139.235C693.028 138.572 695.422 138.101 698.17 137.99L699.129 137.952V136.991V136.991V136.991V136.991V136.991V136.991V136.991V136.991V136.991V136.991V136.99V136.99V136.99V136.99V136.99V136.99V136.99V136.99V136.99V136.99V136.99V136.99V136.99V136.99V136.99V136.989V136.989V136.989V136.989V136.989V136.989V136.989V136.989V136.989V136.989V136.989V136.989V136.989V136.989V136.989V136.988V136.988V136.988V136.988V136.988V136.988V136.988V136.988V136.988V136.988V136.988V136.988V136.988V136.988V136.988V136.987V136.987V136.987V136.987V136.987V136.987V136.987V136.987V136.987V136.987V136.987V136.987V136.987V136.986V136.986V136.986V136.986V136.986V136.986V136.986V136.986V136.986V136.986V136.986V136.986V136.986V136.986V136.985V136.985V136.985V136.985V136.985V136.985V136.985V136.985V136.985V136.985V136.985V136.985V136.985V136.984V136.984V136.984V136.984V136.984V136.984V136.984V136.984V136.984V136.984V136.984V136.984V136.984V136.983V136.983V136.983V136.983V136.983V136.983V136.983V136.983V136.983V136.983V136.983V136.983V136.983V136.982V136.982V136.982V136.982V136.982V136.982V136.982V136.982V136.982V136.982V136.982V136.982V136.981V136.981V136.981V136.981V136.981V136.981V136.981V136.981V136.981V136.981V136.981V136.981V136.981V136.98V136.98V136.98V136.98V136.98V136.98V136.98V136.98V136.98V136.98V136.98V136.98V136.979V136.979V136.979V136.979V136.979V136.979V136.979V136.979V136.979V136.979V136.979V136.979V136.979V136.978V136.978V136.978V136.978V136.978V136.978V136.978V136.978V136.978V136.978V136.978V136.978V136.977V136.977V136.977V136.977V136.977V136.977V136.977V136.977V136.977V136.977V136.977V136.977V136.977V136.976V136.976V136.976V136.976V136.976V136.976V136.976V136.976V136.976V136.976V136.976V136.976V136.975V136.975V136.975V136.975V136.975V136.975V136.975V136.975V136.975V136.975V136.975V136.975V136.975V136.974V136.974V136.974V136.974V136.974V136.974V136.974V136.974V136.974V136.974V136.974V136.974V136.974V136.973V136.973V136.973V136.973V136.973V136.973V136.973V136.973V136.973V136.973V136.973V136.973V136.972V136.972V136.972V136.972V136.972V136.972V136.972V136.972V136.972V136.972V136.972V136.972V136.972V136.972V136.971V136.971V136.971V136.971V136.971V136.971V136.971V136.971V136.971V136.971V136.971V136.971V136.971V136.97V136.97V136.97V136.97V136.97V136.97V136.97V136.97V136.97V136.97V136.97V136.97V136.97V136.97V136.969V136.969V136.969V136.969V136.969V136.969V136.969V136.969V136.969V136.969V136.969V136.969V136.969V136.969V136.968V136.968V136.968V136.968V136.968V136.968V136.968V136.968V136.968V136.968V136.968V136.968V136.968V136.968V136.968V136.967V136.967V136.967V136.967V136.967V136.967V136.967V136.967V136.967V136.967V136.967V136.967V136.967V136.967V136.967V136.967V136.966V136.966V136.966V136.966V136.966V136.966V136.966V136.966V136.966V136.966V136.966V136.966V136.966V136.966V136.966V136.966V136.965V136.965V136.965V136.965V136.965V136.965V136.965V136.965V136.965V136.965V136.965V136.965V136.965V136.965V136.965V136.965V136.965V136.965V136.964V136.964V136.964V136.964V136.964V136.964V136.964V136.964V136.964V136.964V136.964V136.964V136.964V136.964V136.964V136.964V136.964V136.964V136.964V136.963V136.963V136.963V136.963V136.963V136.963V136.963V136.963V136.963V136.963V136.963V136.963V136.963V136.963V136.963V136.963V136.963V136.963V136.963V136.963V136.963V136.963V136.962V136.962V136.962V136.962V136.962V136.962V136.962V136.962V136.962V136.962V136.962V136.962V136.962V136.962V136.962V136.962V136.962V136.962V136.962V136.962V136.962V136.962V136.962V136.962V136.962V136.962V136.961V136.961V136.961V136.961V136.961V136.961V136.961V136.961V136.961V136.961V136.961V136.961V136.961V136.961V136.961V136.961V136.961V136.961V136.961V136.961V136.961V136.961V136.961V136.961V136.961V136.96V136.96V136.96V136.96V136.96V136.96V136.96V136.96V136.96V136.96V136.96C699.129 136.808 699.213 136.528 699.664 136.146C700.111 135.767 700.817 135.38 701.777 135.036C703.688 134.351 706.393 133.907 709.429 133.907C709.796 133.907 710.165 133.917 710.55 133.928L711.781 133.961L711.561 132.75C711.435 132.052 711.36 131.371 711.36 130.67C711.36 122.249 719.419 115.16 729.699 115.16C729.758 115.16 729.822 115.164 729.928 115.173L729.939 115.173C730.034 115.181 730.168 115.191 730.31 115.191H731.525L731.291 113.998C731.116 113.108 731.02 112.203 731.02 111.273C731.02 104.764 735.507 99.2934 741.568 97.7425L741.67 97.7164L741.764 97.6695C743.9 96.6102 746.294 96 748.832 96C755.442 96 761.118 100.026 763.502 105.758L763.8 106.473L764.566 106.364C764.801 106.331 764.934 106.312 765.067 106.312C767.165 106.312 768.858 108.011 768.858 110.087C768.858 111.016 768.497 111.872 767.912 112.546L766.988 113.612L768.3 114.131C770.148 114.862 771.822 115.895 773.271 117.145L773.661 117.481L774.161 117.359C775.57 117.015 777.032 116.82 778.55 116.82C782.797 116.82 786.669 118.231 789.672 120.551L789.82 120.665L789.999 120.718C795.357 122.311 799.237 125.265 800.741 128.671L801.186 129.681L802.147 129.138C802.995 128.659 804.045 128.37 805.205 128.37C808.224 128.37 810.266 130.234 810.31 132.096Z" fill="white" stroke="black" stroke-width="2"/>
<path d="M242.116 443.214L242.004 442.832L241.659 442.631L241.638 442.619L241.309 442.428L240.937 442.504C233.354 444.039 226.224 443.761 220.739 442.044C215.234 440.321 211.558 437.217 210.485 433.212C209.335 428.92 211.292 424.027 215.809 419.539C220.303 415.074 227.188 411.179 235.407 408.977C238.825 408.061 242.17 407.536 245.388 407.328L245.487 407.322L245.582 407.296C246.379 407.083 247.154 406.91 247.953 406.732L248.66 406.575L248.731 405.855C249.827 394.829 260.578 383.766 276.123 379.6C279.469 378.704 282.797 378.201 286.022 378.043L286.691 378.01L286.915 377.379C289.13 371.154 295.96 365.268 305.268 362.774C316.197 359.846 326.449 362.683 330.681 368.669L331.14 369.318L331.877 369.017C333.878 368.197 335.991 367.472 338.175 366.887C351.213 363.393 363.684 365.435 371.01 371.132L371.603 371.593L372.211 371.152C373.694 370.076 375.389 369.232 377.342 368.709C379.294 368.186 381.253 368.068 383.096 368.269L383.427 368.305L383.714 368.135C385.908 366.835 388.578 365.698 391.56 364.899C397.848 363.214 403.521 363.532 406.513 365.153L407.102 365.473L407.622 365.049C410.138 362.998 413.547 361.262 417.344 360.245C421.139 359.228 424.842 359.04 428.025 359.515L428.413 359.573L428.738 359.351C430.699 358.008 433.589 356.721 436.943 355.823C440.396 354.897 443.609 354.571 445.999 354.767C447.199 354.865 448.135 355.09 448.779 355.395C449.427 355.702 449.657 356.025 449.722 356.268C449.788 356.513 449.75 356.908 449.342 357.5C448.936 358.088 448.239 358.753 447.25 359.439C445.279 360.808 442.335 362.136 438.883 363.061C438.705 363.108 438.522 363.149 438.316 363.196L438.307 363.198C438.109 363.242 437.889 363.291 437.668 363.35L436.474 363.67L437.036 364.771C437.241 365.172 437.408 365.576 437.516 365.977C438.162 368.389 437.343 371.109 435.237 373.682L434.68 374.362L435.284 375.001C435.513 375.245 435.65 375.492 435.714 375.729C435.844 376.216 435.747 376.856 435.225 377.678C434.703 378.502 433.812 379.411 432.562 380.346C430.069 382.212 426.327 384.048 421.879 385.435L420.963 385.721L421.211 386.648L421.211 386.648L421.211 386.649L421.211 386.649L421.211 386.649L421.211 386.649L421.211 386.649L421.211 386.649L421.211 386.649L421.211 386.649L421.212 386.649L421.212 386.649L421.212 386.65L421.212 386.65L421.212 386.65L421.212 386.65L421.212 386.65L421.212 386.65L421.212 386.65L421.212 386.65L421.212 386.65L421.212 386.651L421.212 386.651L421.212 386.651L421.212 386.651L421.212 386.651L421.212 386.651L421.212 386.651L421.212 386.651L421.212 386.651L421.212 386.651L421.212 386.652L421.212 386.652L421.212 386.652L421.212 386.652L421.212 386.652L421.212 386.652L421.212 386.652L421.212 386.652L421.212 386.652L421.212 386.653L421.212 386.653L421.212 386.653L421.212 386.653L421.212 386.653L421.213 386.653L421.213 386.653L421.213 386.653L421.213 386.654L421.213 386.654L421.213 386.654L421.213 386.654L421.213 386.654L421.213 386.654L421.213 386.654L421.213 386.654L421.213 386.654L421.213 386.655L421.213 386.655L421.213 386.655L421.213 386.655L421.213 386.655L421.213 386.655L421.213 386.655L421.213 386.655L421.213 386.655L421.213 386.656L421.213 386.656L421.213 386.656L421.213 386.656L421.213 386.656L421.213 386.656L421.213 386.656L421.213 386.656L421.213 386.657L421.213 386.657L421.214 386.657L421.214 386.657L421.214 386.657L421.214 386.657L421.214 386.657L421.214 386.657L421.214 386.658L421.214 386.658L421.214 386.658L421.214 386.658L421.214 386.658L421.214 386.658L421.214 386.658L421.214 386.658L421.214 386.659L421.214 386.659L421.214 386.659L421.214 386.659L421.214 386.659L421.214 386.659L421.214 386.659L421.214 386.659L421.214 386.66L421.214 386.66L421.214 386.66L421.214 386.66L421.214 386.66L421.214 386.66L421.214 386.66L421.214 386.66L421.215 386.661L421.215 386.661L421.215 386.661L421.215 386.661L421.215 386.661L421.215 386.661L421.215 386.661L421.215 386.661L421.215 386.662L421.215 386.662L421.215 386.662L421.215 386.662L421.215 386.662L421.215 386.662L421.215 386.662L421.215 386.662L421.215 386.663L421.215 386.663L421.215 386.663L421.215 386.663L421.215 386.663L421.215 386.663L421.215 386.663L421.215 386.663L421.215 386.664L421.215 386.664L421.215 386.664L421.215 386.664L421.215 386.664L421.216 386.664L421.216 386.664L421.216 386.665L421.216 386.665L421.216 386.665L421.216 386.665L421.216 386.665L421.216 386.665L421.216 386.665L421.216 386.665L421.216 386.666L421.216 386.666L421.216 386.666L421.216 386.666L421.216 386.666L421.216 386.666L421.216 386.666L421.216 386.666L421.216 386.667L421.216 386.667L421.216 386.667L421.216 386.667L421.216 386.667L421.216 386.667L421.216 386.667L421.216 386.668L421.216 386.668L421.216 386.668L421.216 386.668L421.217 386.668L421.217 386.668L421.217 386.668L421.217 386.668L421.217 386.669L421.217 386.669L421.217 386.669L421.217 386.669L421.217 386.669L421.217 386.669L421.217 386.669L421.217 386.67L421.217 386.67L421.217 386.67L421.217 386.67L421.217 386.67L421.217 386.67L421.217 386.67L421.217 386.67L421.217 386.671L421.217 386.671L421.217 386.671L421.217 386.671L421.217 386.671L421.217 386.671L421.217 386.671L421.217 386.671L421.217 386.672L421.218 386.672L421.218 386.672L421.218 386.672L421.218 386.672L421.218 386.672L421.218 386.672L421.218 386.673L421.218 386.673L421.218 386.673L421.218 386.673L421.218 386.673L421.218 386.673L421.218 386.673L421.218 386.673L421.218 386.674L421.218 386.674L421.218 386.674L421.218 386.674L421.218 386.674L421.218 386.674L421.218 386.674L421.218 386.674L421.218 386.675L421.218 386.675L421.218 386.675L421.218 386.675L421.218 386.675L421.218 386.675L421.218 386.675L421.219 386.676L421.219 386.676L421.219 386.676L421.219 386.676L421.219 386.676L421.219 386.676L421.219 386.676L421.219 386.676L421.219 386.677L421.219 386.677L421.219 386.677L421.219 386.677L421.219 386.677L421.219 386.677L421.219 386.677L421.219 386.677L421.219 386.678L421.219 386.678L421.219 386.678L421.219 386.678L421.219 386.678L421.219 386.678L421.219 386.678L421.219 386.678L421.219 386.679L421.219 386.679L421.219 386.679L421.219 386.679L421.219 386.679L421.219 386.679L421.22 386.679L421.22 386.679L421.22 386.68L421.22 386.68L421.22 386.68L421.22 386.68L421.22 386.68L421.22 386.68L421.22 386.68L421.22 386.68L421.22 386.681L421.22 386.681L421.22 386.681L421.22 386.681L421.22 386.681L421.22 386.681L421.22 386.681L421.22 386.681L421.22 386.682L421.22 386.682L421.22 386.682L421.22 386.682L421.22 386.682L421.22 386.682L421.22 386.682L421.22 386.682L421.22 386.682L421.22 386.683L421.22 386.683L421.22 386.683L421.221 386.683L421.221 386.683L421.221 386.683L421.221 386.683L421.221 386.683L421.221 386.684L421.221 386.684L421.221 386.684L421.221 386.684L421.221 386.684L421.221 386.684L421.221 386.684L421.221 386.684L421.221 386.684L421.221 386.685L421.221 386.685L421.221 386.685L421.221 386.685L421.221 386.685L421.221 386.685L421.221 386.685L421.221 386.685L421.221 386.685L421.221 386.686L421.221 386.686L421.221 386.686L421.221 386.686L421.221 386.686L421.221 386.686L421.221 386.686L421.221 386.686L421.221 386.686L421.221 386.687L421.222 386.687L421.222 386.687L421.222 386.687L421.222 386.687L421.222 386.687L421.222 386.687L421.222 386.687L421.222 386.687L421.222 386.688L421.222 386.688L421.222 386.688L421.222 386.688L421.222 386.688L421.222 386.688L421.222 386.688L421.222 386.688L421.222 386.688L421.222 386.688L421.222 386.689L421.222 386.689L421.222 386.689L421.222 386.689L421.222 386.689L421.222 386.689L421.222 386.689L421.222 386.689L421.222 386.689L421.222 386.689L421.222 386.69L421.222 386.69L421.222 386.69L421.222 386.69L421.222 386.69L421.222 386.69L421.222 386.69L421.222 386.69L421.222 386.69L421.223 386.69L421.223 386.691L421.223 386.691L421.223 386.691L421.223 386.691L421.223 386.691L421.223 386.691L421.223 386.691L421.223 386.691L421.223 386.691L421.223 386.691L421.223 386.691L421.223 386.692L421.223 386.692L421.223 386.692L421.223 386.692L421.223 386.692L421.223 386.692L421.223 386.692L421.223 386.692L421.223 386.692L421.223 386.692L421.223 386.692L421.223 386.692L421.223 386.693L421.223 386.693L421.223 386.693L421.223 386.693L421.223 386.693L421.223 386.693L421.223 386.693L421.223 386.693L421.223 386.693L421.223 386.693L421.223 386.693L421.223 386.693L421.223 386.694L421.223 386.694L421.223 386.694L421.223 386.694L421.223 386.694L421.223 386.694L421.223 386.694L421.223 386.694L421.224 386.694L421.224 386.694L421.224 386.694L421.224 386.694L421.224 386.694L421.224 386.695L421.224 386.695L421.224 386.695L421.224 386.695L421.224 386.695L421.224 386.695L421.224 386.695L421.224 386.695L421.224 386.695L421.224 386.695L421.224 386.695L421.224 386.695L421.224 386.695L421.224 386.695L421.224 386.695L421.224 386.696L421.224 386.696L421.224 386.696L421.224 386.696L421.224 386.696L421.224 386.696L421.224 386.696L421.224 386.696L421.224 386.696L421.224 386.696L421.224 386.696L421.224 386.696L421.224 386.696L421.224 386.696L421.224 386.696L421.224 386.697L421.224 386.697L421.224 386.697L421.224 386.697L421.224 386.697L421.224 386.697L421.224 386.697L421.224 386.697L421.224 386.697L421.224 386.697L421.224 386.698L421.224 386.698L421.224 386.698L421.224 386.698L421.225 386.698L421.225 386.698L421.225 386.698L421.225 386.698L421.225 386.698L421.225 386.698L421.225 386.698L421.225 386.698L421.225 386.698L421.225 386.698L421.225 386.699L421.225 386.699L421.225 386.699L421.225 386.699L421.225 386.699C421.365 387.222 421.242 387.925 420.619 388.833C419.998 389.736 418.954 390.727 417.515 391.73C414.644 393.732 410.384 395.656 405.417 396.987C404.812 397.148 404.201 397.295 403.575 397.444L402.38 397.73L402.903 398.842C403.426 399.955 403.861 401.074 404.181 402.266C407.988 416.476 397.697 431.84 380.807 436.366C380.683 436.399 380.554 436.424 380.381 436.456L380.368 436.458C380.209 436.488 380.01 436.525 379.805 436.58L378.633 436.894L379.166 437.985C379.856 439.399 380.424 440.876 380.843 442.441C383.774 453.381 378.755 464.565 369.369 469.868L369.277 469.92L369.197 469.991C366.131 472.71 362.432 474.796 358.22 475.925C347.255 478.863 336.031 474.654 329.5 466.119L329.028 465.501L328.313 465.807L328.299 465.813C327.952 465.961 327.702 466.068 327.436 466.139C323.688 467.144 319.828 464.897 318.82 461.134C318.365 459.437 318.605 457.714 319.319 456.229L319.927 454.967L318.536 454.802C315.148 454.402 311.915 453.419 308.956 451.977L308.49 451.75L308.036 451.999C305.863 453.195 303.533 454.168 301.022 454.841C294.005 456.721 286.969 456.088 280.957 453.547L280.785 453.474L280.597 453.468C271.12 453.19 263.321 450.016 259.225 444.894L258.531 444.026L257.741 444.807C256.493 446.041 254.816 447.024 252.834 447.555C247.751 448.917 243.148 446.733 242.116 443.214Z" fill="white" stroke="black" stroke-width="2"/>
<path d="M1 523L90.7855 494.648C95.6172 493.123 99.9018 490.655 103.25 487.468L157.547 435.819L163.4 409.224L210.66 371.011C218.326 364.813 231.177 365.955 236.971 373.351L275.068 421.979C279.602 427.768 287.011 431.714 295.413 432.818L308.243 434.504C314.707 435.355 320.64 437.897 325.12 441.735L383.69 491.934L453 522.998" fill="white"/>
<path d="M1 523L90.7855 494.648C95.6172 493.123 99.9018 490.655 103.25 487.468L157.547 435.819L163.4 409.224L210.66 371.011C218.326 364.813 231.177 365.955 236.971 373.351L275.068 421.979C279.602 427.768 287.011 431.714 295.413 432.818L308.243 434.504C314.707 435.355 320.64 437.897 325.12 441.735L383.69 491.934L453 522.998" stroke="black" stroke-width="2" stroke-miterlimit="10"/>
<path d="M665 467L807.028 421.928C814.671 419.504 821.449 415.579 826.745 410.514L912.635 328.405L921.893 286.125L996.652 225.377C1008.78 215.523 1029.11 217.339 1038.27 229.096L1098.54 306.402C1105.71 315.605 1117.43 321.879 1130.72 323.634L1151.02 326.315C1161.24 327.667 1170.62 331.709 1177.71 337.81L1270.36 417.612L1380 466.997" fill="#7ED1FF"/>
<path d="M665 467L807.028 421.928C814.671 419.504 821.449 415.579 826.745 410.514L912.635 328.405L921.893 286.125L996.652 225.377C1008.78 215.523 1029.11 217.339 1038.27 229.096L1098.54 306.402C1105.71 315.605 1117.43 321.879 1130.72 323.634L1151.02 326.315C1161.24 327.667 1170.62 331.709 1177.71 337.81L1270.36 417.612L1380 466.997" stroke="black" stroke-width="2" stroke-miterlimit="10"/>
<path d="M198 458L311.821 421.833C317.946 419.888 323.378 416.739 327.622 412.674L396.454 346.789L403.874 312.862L463.786 264.117C473.504 256.21 489.796 257.667 497.14 267.102L545.436 329.133C551.184 336.518 560.576 341.552 571.227 342.961L587.492 345.111C595.686 346.197 603.207 349.44 608.887 354.336L683.135 418.37L771 457.998" fill="white"/>
<path d="M198 458L311.821 421.833C317.946 419.888 323.378 416.739 327.622 412.674L396.454 346.789L403.874 312.862L463.786 264.117C473.504 256.21 489.796 257.667 497.14 267.102L545.436 329.133C551.184 336.518 560.576 341.552 571.227 342.961L587.492 345.111C595.686 346.197 603.207 349.44 608.887 354.336L683.135 418.37L771 457.998" stroke="black" stroke-width="3" stroke-miterlimit="10"/>
<path d="M611.036 262.646L611.045 263.044L611.326 263.327L611.343 263.344L611.611 263.614L611.991 263.637C619.712 264.117 626.527 266.231 631.381 269.308C636.253 272.398 639 276.348 639 280.494C639 284.937 635.843 289.157 630.319 292.323C624.822 295.472 617.163 297.453 608.655 297.453C605.116 297.453 601.749 297.094 598.587 296.462L598.49 296.443H598.391C597.566 296.443 596.772 296.409 595.955 296.374L595.232 296.343L594.976 297.02C591.064 307.387 577.816 315.29 561.723 315.29C558.258 315.29 554.914 314.915 551.757 314.233L551.103 314.092L550.723 314.643C546.972 320.082 538.852 324 529.216 324C517.901 324 508.733 318.606 506.194 311.729L505.919 310.982L505.13 311.083C502.984 311.357 500.756 311.51 498.495 311.51C484.997 311.51 473.479 306.31 467.877 298.912L467.424 298.313L466.723 298.582C465.011 299.237 463.155 299.613 461.133 299.613C459.113 299.613 457.19 299.22 455.462 298.549L455.151 298.428L454.83 298.518C452.375 299.206 449.502 299.613 446.414 299.613C439.904 299.613 434.507 297.838 432.036 295.498L431.55 295.037L430.939 295.311C427.977 296.641 424.235 297.436 420.305 297.436C416.375 297.436 412.75 296.659 409.798 295.376L409.438 295.22L409.067 295.35C406.825 296.139 403.7 296.634 400.228 296.634C396.653 296.634 393.465 296.118 391.207 295.31C390.074 294.905 389.228 294.445 388.685 293.984C388.138 293.52 388 293.149 388 292.896C388 292.644 388.139 292.271 388.686 291.805C389.23 291.343 390.076 290.881 391.209 290.473C393.467 289.662 396.654 289.141 400.228 289.141C400.412 289.141 400.599 289.149 400.81 289.158L400.82 289.158C401.022 289.166 401.248 289.176 401.476 289.176H402.712L402.454 287.967C402.36 287.526 402.303 287.094 402.303 286.678C402.303 284.181 403.798 281.766 406.498 279.825L407.212 279.313L406.795 278.539C406.636 278.244 406.568 277.971 406.568 277.724C406.568 277.221 406.828 276.628 407.544 275.968C408.262 275.308 409.358 274.66 410.807 274.08C413.698 272.923 417.787 272.119 422.443 271.93L423.402 271.891V270.931V270.931V270.931V270.931V270.93V270.93V270.93V270.93V270.93V270.93V270.93V270.93V270.93V270.93V270.929V270.929V270.929V270.929V270.929V270.929V270.929V270.929V270.929V270.928V270.928V270.928V270.928V270.928V270.928V270.928V270.928V270.928V270.927V270.927V270.927V270.927V270.927V270.927V270.927V270.927V270.926V270.926V270.926V270.926V270.926V270.926V270.926V270.926V270.926V270.925V270.925V270.925V270.925V270.925V270.925V270.925V270.925V270.924V270.924V270.924V270.924V270.924V270.924V270.924V270.924V270.924V270.923V270.923V270.923V270.923V270.923V270.923V270.923V270.923V270.922V270.922V270.922V270.922V270.922V270.922V270.922V270.922V270.921V270.921V270.921V270.921V270.921V270.921V270.921V270.92V270.92V270.92V270.92V270.92V270.92V270.92V270.92V270.919V270.919V270.919V270.919V270.919V270.919V270.919V270.919V270.918V270.918V270.918V270.918V270.918V270.918V270.918V270.917V270.917V270.917V270.917V270.917V270.917V270.917V270.917V270.916V270.916V270.916V270.916V270.916V270.916V270.916V270.915V270.915V270.915V270.915V270.915V270.915V270.915V270.915V270.914V270.914V270.914V270.914V270.914V270.914V270.914V270.913V270.913V270.913V270.913V270.913V270.913V270.913V270.913V270.912V270.912V270.912V270.912V270.912V270.912V270.912V270.911V270.911V270.911V270.911V270.911V270.911V270.911V270.91V270.91V270.91V270.91V270.91V270.91V270.91V270.91V270.909V270.909V270.909V270.909V270.909V270.909V270.909V270.908V270.908V270.908V270.908V270.908V270.908V270.908V270.908V270.907V270.907V270.907V270.907V270.907V270.907V270.907V270.906V270.906V270.906V270.906V270.906V270.906V270.906V270.905V270.905V270.905V270.905V270.905V270.905V270.905V270.905V270.904V270.904V270.904V270.904V270.904V270.904V270.904V270.903V270.903V270.903V270.903V270.903V270.903V270.903V270.903V270.902V270.902V270.902V270.902V270.902V270.902V270.902V270.901V270.901V270.901V270.901V270.901V270.901V270.901V270.901V270.9V270.9V270.9V270.9V270.9V270.9V270.9V270.9V270.899V270.899V270.899V270.899V270.899V270.899V270.899V270.898V270.898V270.898V270.898V270.898V270.898V270.898V270.898V270.897V270.897V270.897V270.897V270.897V270.897V270.897V270.897V270.896V270.896V270.896V270.896V270.896V270.896V270.896V270.896V270.895V270.895V270.895V270.895V270.895V270.895V270.895V270.895V270.894V270.894V270.894V270.894V270.894V270.894V270.894V270.894V270.894V270.893V270.893V270.893V270.893V270.893V270.893V270.893V270.893V270.892V270.892V270.892V270.892V270.892V270.892V270.892V270.892V270.892V270.891V270.891V270.891V270.891V270.891V270.891V270.891V270.891V270.891V270.89V270.89V270.89V270.89V270.89V270.89V270.89V270.89V270.89V270.889V270.889V270.889V270.889V270.889V270.889V270.889V270.889V270.889V270.889V270.888V270.888V270.888V270.888V270.888V270.888V270.888V270.888V270.888V270.888V270.887V270.887V270.887V270.887V270.887V270.887V270.887V270.887V270.887V270.887V270.886V270.886V270.886V270.886V270.886V270.886V270.886V270.886V270.886V270.886V270.886V270.885V270.885V270.885V270.885V270.885V270.885V270.885V270.885V270.885V270.885V270.885V270.885V270.884V270.884V270.884V270.884V270.884V270.884V270.884V270.884V270.884V270.884V270.884V270.884V270.883V270.883V270.883V270.883V270.883V270.883V270.883V270.883V270.883V270.883V270.883V270.883V270.883V270.882V270.882V270.882V270.882V270.882V270.882V270.882V270.882V270.882V270.882V270.882V270.882V270.882V270.882V270.882V270.882V270.881V270.881V270.881V270.881V270.881V270.881V270.881V270.881V270.881V270.881V270.881V270.88V270.88V270.88V270.88V270.88V270.88V270.88V270.88V270.88V270.88V270.88V270.88V270.879V270.879V270.879V270.879V270.879V270.879V270.879V270.879V270.879V270.879V270.879V270.879C423.402 270.337 423.703 269.69 424.54 268.974C425.374 268.262 426.638 267.575 428.288 266.979C431.579 265.789 436.192 265.033 441.334 265.033C441.96 265.033 442.588 265.05 443.232 265.067L444.46 265.101L444.243 263.891C444.026 262.681 443.895 261.487 443.895 260.253C443.895 245.542 457.812 233.365 475.298 233.365C475.426 233.365 475.557 233.374 475.732 233.388L475.745 233.389C475.907 233.401 476.108 233.417 476.321 233.417H477.534L477.302 232.226C477.001 230.681 476.835 229.108 476.835 227.487C476.835 216.161 484.578 206.658 495.017 203.964L495.12 203.938L495.215 203.89C498.881 202.057 502.993 201 507.354 201C518.706 201 528.458 207.97 532.557 217.905L532.853 218.624L533.623 218.514L533.637 218.511C534.012 218.458 534.28 218.419 534.556 218.419C538.436 218.419 541.583 221.589 541.583 225.484C541.583 227.241 540.905 228.844 539.831 230.093L538.917 231.155L540.219 231.674C543.387 232.937 546.256 234.723 548.741 236.882L549.132 237.222L549.635 237.098C552.043 236.506 554.546 236.169 557.146 236.169C564.41 236.169 571.043 238.602 576.192 242.612L576.34 242.728L576.519 242.781C585.601 245.503 592.313 250.587 594.944 256.595L595.389 257.613L596.355 257.063C597.88 256.195 599.754 255.679 601.806 255.679C607.068 255.679 610.949 258.979 611.036 262.646Z" fill="white" stroke="black" stroke-width="2"/>
<g clip-path="url(#clip0_815_242)">
<path d="M280.359 466.018L456.785 396.635C466.279 392.903 474.698 386.862 481.278 379.065L587.969 252.668L599.469 187.582L692.334 94.0689C707.398 78.8998 732.65 81.6954 744.035 99.7944L818.894 218.797C827.804 232.965 842.363 242.621 858.872 245.324L884.083 249.45C896.783 251.532 908.441 257.754 917.245 267.146L1032.33 389.992L1168.52 466.014" fill="white"/>
<path d="M280.359 466.018L456.785 396.635C466.279 392.903 474.698 386.862 481.278 379.065L587.969 252.668L599.469 187.582L692.334 94.0689C707.398 78.8998 732.65 81.6954 744.035 99.7944L818.894 218.797C827.804 232.965 842.363 242.621 858.872 245.324L884.083 249.45C896.783 251.532 908.441 257.754 917.245 267.146L1032.33 389.992L1168.52 466.014" stroke="black" stroke-width="2" stroke-miterlimit="10"/>
<path d="M599.469 187.582L652.685 245.116C657.115 249.905 651.522 257.244 645.735 254.235L615.543 238.542C608.291 234.773 599.372 236.887 594.585 243.516L587.969 252.672L599.469 187.587V187.582Z" fill="black"/>
<path d="M818.894 218.802C818.894 218.802 849.79 275.704 829.63 320.372C809.469 365.041 856.059 317.294 903.669 317.294C951.278 317.294 977.119 331.059 977.119 331.059" stroke="black" stroke-width="2" stroke-miterlimit="10"/>
<path d="M280.359 466.018C280.359 466.018 517.781 448.429 498.959 432.959C480.138 417.488 471.584 396.645 524.587 386.557C577.59 376.469 587.427 238.138 630.593 246.08C630.593 246.08 603.936 221.532 587.964 252.663L476.63 383.984C476.63 383.984 474.443 389.686 449.686 399.422L280.359 466.018Z" fill="#7ED1FF" stroke="black" stroke-width="2" stroke-miterlimit="10"/>
<path d="M721.641 84.7551C721.641 84.7551 763.092 127.81 768.472 200.026C773.851 272.241 794.193 193.702 812.583 208.765" stroke="black" stroke-width="2" stroke-miterlimit="10"/>
<path d="M944.56 466.018C944.56 466.018 953.298 466.018 1021.89 455.722C1076.47 447.53 1050.46 412.217 1037.55 398.128C1036.88 397.386 1037.81 396.292 1038.65 396.848L1142.83 466.014" stroke="black" stroke-width="2" stroke-miterlimit="10"/>
<path d="M884.083 249.46C884.083 249.46 865.85 245.63 850.11 254.935" stroke="black" stroke-width="2" stroke-miterlimit="10"/>
<path d="M680.616 466.018C680.616 466.018 736.783 398.99 749.683 399.607C762.583 400.224 837.02 466.018 837.02 466.018L770.084 393.26C767.36 390.302 763.445 388.74 759.432 389.018L746.463 389.918C735.699 390.664 728.577 378.884 734.304 369.728C752.843 340.09 767.902 292.899 703.941 248.361C638.692 202.923 711.243 84.7505 711.243 84.7505" stroke="black" stroke-width="2" stroke-miterlimit="10"/>
<path d="M1274.39 449.659H1248.72C1247.64 449.659 1247.64 451.33 1248.72 451.33H1274.39C1275.47 451.33 1275.47 449.659 1274.39 449.659Z" fill="black"/>
<path d="M1268.83 447.386H1243.92" stroke="black" stroke-width="2" stroke-miterlimit="10"/>
<path d="M1268.83 446.55H1243.92C1242.84 446.55 1242.84 448.222 1243.92 448.222H1268.83C1269.9 448.222 1269.9 446.55 1268.83 446.55Z" fill="black"/>
<path d="M1263.26 444.278H1239.12" stroke="black" stroke-width="2" stroke-miterlimit="10"/>
<path d="M1263.26 443.442H1239.12C1238.04 443.442 1238.04 445.113 1239.12 445.113H1263.26C1264.33 445.113 1264.33 443.442 1263.26 443.442Z" fill="black"/>
<path d="M1257.69 441.17H1234.32" stroke="black" stroke-width="2" stroke-miterlimit="10"/>
<path d="M1257.69 440.334H1234.32C1233.25 440.334 1233.25 442.005 1234.32 442.005H1257.69C1258.77 442.005 1258.77 440.334 1257.69 440.334Z" fill="black"/>
<path d="M1252.12 438.061H1229.52" stroke="black" stroke-width="2" stroke-miterlimit="10"/>
<path d="M1252.12 437.226H1229.52C1228.45 437.226 1228.45 438.897 1229.52 438.897H1252.12C1253.2 438.897 1253.2 437.226 1252.12 437.226Z" fill="black"/>
<path d="M1246.56 434.953H1224.72" stroke="black" stroke-width="2" stroke-miterlimit="10"/>
<path d="M1246.56 434.118H1224.72C1223.65 434.118 1223.65 435.789 1224.72 435.789H1246.56C1247.63 435.789 1247.63 434.118 1246.56 434.118Z" fill="black"/>
<path d="M1240.99 431.845H1219.92" stroke="black" stroke-width="2" stroke-miterlimit="10"/>
<path d="M1240.99 431.009H1219.92C1218.85 431.009 1218.85 432.68 1219.92 432.68H1240.99C1242.06 432.68 1242.06 431.009 1240.99 431.009Z" fill="black"/>
<path d="M1235.42 428.742H1215.12" stroke="black" stroke-width="2" stroke-miterlimit="10"/>
<path d="M1235.42 427.907H1215.12C1214.05 427.907 1214.05 429.578 1215.12 429.578H1235.42C1236.5 429.578 1236.5 427.907 1235.42 427.907Z" fill="black"/>
<path d="M1229.85 425.634H1210.32" stroke="black" stroke-width="2" stroke-miterlimit="10"/>
<path d="M1229.85 424.798H1210.32C1209.25 424.798 1209.25 426.469 1210.32 426.469H1229.85C1230.93 426.469 1230.93 424.798 1229.85 424.798Z" fill="black"/>
<path d="M1224.29 422.526H1205.53" stroke="black" stroke-width="2" stroke-miterlimit="10"/>
<path d="M1224.29 421.69H1205.53C1204.45 421.69 1204.45 423.361 1205.53 423.361H1224.29C1225.36 423.361 1225.36 421.69 1224.29 421.69Z" fill="black"/>
<path d="M1218.72 419.417H1200.73" stroke="black" stroke-width="2" stroke-miterlimit="10"/>
<path d="M1218.72 418.582H1200.73C1199.65 418.582 1199.65 420.253 1200.73 420.253H1218.72C1219.79 420.253 1219.79 418.582 1218.72 418.582Z" fill="black"/>
<path d="M1213.15 416.309H1195.93" stroke="black" stroke-width="2" stroke-miterlimit="10"/>
<path d="M1213.15 415.474H1195.93C1194.85 415.474 1194.85 417.145 1195.93 417.145H1213.15C1214.23 417.145 1214.23 415.474 1213.15 415.474Z" fill="black"/>
<path d="M1207.58 413.201H1191.13" stroke="black" stroke-width="2" stroke-miterlimit="10"/>
<path d="M1207.59 412.365H1191.13C1190.05 412.365 1190.05 414.036 1191.13 414.036H1207.59C1208.66 414.036 1208.66 412.365 1207.59 412.365Z" fill="black"/>
<path d="M1202.02 410.098H1186.33" stroke="black" stroke-width="2" stroke-miterlimit="10"/>
<path d="M1202.02 409.263H1186.33C1185.25 409.263 1185.25 410.934 1186.33 410.934H1202.02C1203.09 410.934 1203.09 409.263 1202.02 409.263Z" fill="black"/>
<path d="M1196.45 406.99H1181.53" stroke="black" stroke-width="2" stroke-miterlimit="10"/>
<path d="M1196.45 406.155H1181.53C1180.46 406.155 1180.46 407.826 1181.53 407.826H1196.45C1197.53 407.826 1197.53 406.155 1196.45 406.155Z" fill="black"/>
<path d="M1190.88 403.882H1176.73" stroke="black" stroke-width="2" stroke-miterlimit="10"/>
<path d="M1190.88 403.046H1176.73C1175.66 403.046 1175.66 404.717 1176.73 404.717H1190.88C1191.96 404.717 1191.96 403.046 1190.88 403.046Z" fill="black"/>
<path d="M1185.32 400.774H1171.93" stroke="black" stroke-width="2" stroke-miterlimit="10"/>
<path d="M1185.32 399.938H1171.93C1170.86 399.938 1170.86 401.609 1171.93 401.609H1185.32C1186.39 401.609 1186.39 399.938 1185.32 399.938Z" fill="black"/>
<path d="M1179.75 397.665H1167.13" stroke="black" stroke-width="2" stroke-miterlimit="10"/>
<path d="M1179.75 396.83H1167.13C1166.06 396.83 1166.06 398.501 1167.13 398.501H1179.75C1180.82 398.501 1180.82 396.83 1179.75 396.83Z" fill="black"/>
<path d="M1174.18 394.557H1162.34" stroke="black" stroke-width="2" stroke-miterlimit="10"/>
<path d="M1174.18 393.722H1162.33C1161.26 393.722 1161.26 395.393 1162.33 395.393H1174.18C1175.26 395.393 1175.26 393.722 1174.18 393.722Z" fill="black"/>
<path d="M1168.61 391.449H1157.54" stroke="black" stroke-width="2" stroke-miterlimit="10"/>
<path d="M1168.61 390.613H1157.54C1156.46 390.613 1156.46 392.284 1157.54 392.284H1168.61C1169.69 392.284 1169.69 390.613 1168.61 390.613Z" fill="black"/>
<path d="M1163.05 388.346H1152.74" stroke="black" stroke-width="2" stroke-miterlimit="10"/>
<path d="M1163.05 387.511H1152.74C1151.66 387.511 1151.66 389.182 1152.74 389.182H1163.05C1164.12 389.182 1164.12 387.511 1163.05 387.511Z" fill="black"/>
<path d="M1157.49 385.238H1147.94" stroke="black" stroke-width="2" stroke-miterlimit="10"/>
<path d="M723 341H748" stroke="black" stroke-width="2" stroke-miterlimit="10" stroke-linecap="round"/>
<path d="M719 354H744" stroke="black" stroke-width="2" stroke-miterlimit="10" stroke-linecap="round"/>
<path d="M726 359H740" stroke="black" stroke-width="2" stroke-miterlimit="10" stroke-linecap="round"/>
<path d="M722 367H736" stroke="black" stroke-width="2" stroke-miterlimit="10" stroke-linecap="round"/>
<path d="M686 347H744" stroke="black" stroke-width="2" stroke-miterlimit="10" stroke-linecap="round"/>
<path d="M658 347H673" stroke="black" stroke-width="2" stroke-miterlimit="10" stroke-linecap="round"/>
<path d="M738 282H708" stroke="black" stroke-width="2" stroke-miterlimit="10" stroke-linecap="round"/>
<path d="M742 288H725" stroke="black" stroke-width="2" stroke-miterlimit="10" stroke-linecap="round"/>
<path d="M745 293H687" stroke="black" stroke-width="2" stroke-miterlimit="10" stroke-linecap="round"/>
<path d="M747 300H730" stroke="black" stroke-width="2" stroke-miterlimit="10" stroke-linecap="round"/>
<path d="M749 305H722" stroke="black" stroke-width="2" stroke-miterlimit="10" stroke-linecap="round"/>
<path d="M698.023 105.785H686.921C686.026 105.785 686.026 107.176 686.921 107.176H698.023C698.917 107.176 698.917 105.785 698.023 105.785Z" fill="black"/>
<path d="M682.338 110C681.444 110 681.444 111.391 682.338 111.391H693.978C694.515 111.391 695.057 111.391 695.599 111.391C695.609 111.391 695.613 111.391 695.622 111.391C696.517 111.391 696.517 110 695.622 110H683.983C683.446 110 682.903 110 682.361 110C682.352 110 682.347 110 682.338 110Z" fill="black"/>
<path d="M677.756 115.004C676.861 115.004 676.861 116.395 677.756 116.395H691.309C691.934 116.395 692.564 116.404 693.194 116.395C693.204 116.395 693.213 116.395 693.222 116.395C694.117 116.395 694.117 115.004 693.222 115.004H679.669C679.044 115.004 678.414 114.995 677.783 115.004C677.774 115.004 677.765 115.004 677.756 115.004Z" fill="black"/>
<path d="M673.178 120.006C672.283 120.006 672.283 121.397 673.178 121.397H688.64C689.353 121.397 690.071 121.411 690.785 121.397C690.794 121.397 690.803 121.397 690.817 121.397C691.712 121.397 691.712 120.006 690.817 120.006H675.355C674.642 120.006 673.924 119.992 673.21 120.006C673.201 120.006 673.191 120.006 673.178 120.006Z" fill="black"/>
<path d="M668.596 125.008C667.701 125.008 667.701 126.399 668.596 126.399H685.971C686.773 126.399 687.579 126.418 688.381 126.399C688.395 126.399 688.404 126.399 688.418 126.399C689.312 126.399 689.312 125.008 688.418 125.008H671.042C670.24 125.008 669.434 124.99 668.633 125.008C668.619 125.008 668.609 125.008 668.596 125.008Z" fill="black"/>
<path d="M664.012 130.008C663.118 130.008 663.118 131.399 664.012 131.399H683.302C684.191 131.399 685.086 131.418 685.975 131.399C685.989 131.399 686.003 131.399 686.012 131.399C686.907 131.399 686.907 130.008 686.012 130.008H666.723C665.833 130.008 664.939 129.99 664.05 130.008C664.036 130.008 664.022 130.008 664.012 130.008Z" fill="black"/>
<path d="M659.434 135.01C658.54 135.01 658.54 136.401 659.434 136.401H680.633C681.61 136.401 682.593 136.424 683.57 136.401C683.584 136.401 683.598 136.401 683.612 136.401C684.506 136.401 684.506 135.01 683.612 135.01H662.414C661.436 135.01 660.454 134.987 659.476 135.01C659.462 135.01 659.448 135.01 659.434 135.01Z" fill="black"/>
<path d="M654.852 140.012C653.958 140.012 653.958 141.403 654.852 141.403H677.964C679.03 141.403 680.1 141.431 681.166 141.403C681.18 141.403 681.198 141.403 681.212 141.403C682.107 141.403 682.107 140.012 681.212 140.012H658.1C657.035 140.012 655.964 139.985 654.899 140.012C654.885 140.012 654.866 140.012 654.852 140.012Z" fill="black"/>
<path d="M650.274 145.014C649.38 145.014 649.38 146.405 650.274 146.405H675.3C676.453 146.405 677.612 146.438 678.766 146.405C678.784 146.405 678.798 146.405 678.817 146.405C679.711 146.405 679.711 145.014 678.817 145.014H653.791C652.637 145.014 651.479 144.982 650.325 145.014C650.307 145.014 650.293 145.014 650.274 145.014Z" fill="black"/>
<path d="M645.692 150.016C644.797 150.016 644.797 151.407 645.692 151.407H672.626C673.868 151.407 675.114 151.444 676.356 151.407C676.375 151.407 676.393 151.407 676.412 151.407C677.306 151.407 677.306 150.016 676.412 150.016H649.477C648.235 150.016 646.989 149.979 645.747 150.016C645.729 150.016 645.71 150.016 645.692 150.016Z" fill="black"/>
<path d="M641.114 155.019C640.22 155.019 640.22 156.409 641.114 156.409H666.047C667.377 156.409 668.711 156.451 670.041 156.409C670.06 156.409 670.078 156.409 670.101 156.409C670.996 156.409 670.996 155.019 670.101 155.019H645.168C643.839 155.019 642.504 154.977 641.174 155.019C641.156 155.019 641.137 155.019 641.114 155.019Z" fill="black"/>
<path d="M636.531 160.021C635.637 160.021 635.637 161.411 636.531 161.411H648.416C651.785 161.411 646.234 161.411 649.602 161.411H658.369C659.787 161.411 661.209 161.458 662.627 161.411C662.645 161.411 662.669 161.411 662.687 161.411C663.581 161.411 663.581 160.021 662.687 160.021H650.802C647.434 160.021 652.985 160.021 649.616 160.021H640.849C639.432 160.021 638.009 159.974 636.591 160.021C636.573 160.021 636.55 160.021 636.531 160.021Z" fill="black"/>
<path d="M631.949 165.023C631.055 165.023 631.055 166.413 631.949 166.413H664.62C666.126 166.413 667.636 166.464 669.142 166.413C669.165 166.413 669.184 166.413 669.207 166.413C670.101 166.413 670.101 165.023 669.207 165.023H636.536C635.03 165.023 633.52 164.972 632.014 165.023C631.991 165.023 631.972 165.023 631.949 165.023Z" fill="black"/>
<path d="M627.371 170.023C626.477 170.023 626.477 171.413 627.371 171.413H661.955C663.549 171.413 665.148 171.464 666.742 171.413C666.765 171.413 666.788 171.413 666.811 171.413C667.706 171.413 667.706 170.023 666.811 170.023H632.227C630.633 170.023 629.034 169.972 627.44 170.023C627.417 170.023 627.394 170.023 627.371 170.023Z" fill="black"/>
<path d="M622.788 175.025C621.894 175.025 621.894 176.416 622.788 176.416H659.282C660.959 176.416 662.655 176.471 664.332 176.416C664.356 176.416 664.383 176.416 664.407 176.416C665.301 176.416 665.301 175.025 664.407 175.025H627.913C626.236 175.025 624.54 174.969 622.863 175.025C622.839 175.025 622.812 175.025 622.788 175.025Z" fill="black"/>
<path d="M618.21 180.027C617.316 180.027 617.316 181.418 618.21 181.418H656.617C658.383 181.418 665.894 181.478 667.659 181.418C667.687 181.418 667.71 181.418 667.738 181.418C668.632 181.418 668.632 180.027 667.738 180.027H623.599C621.834 180.027 620.05 179.967 618.284 180.027C618.257 180.027 618.233 180.027 618.206 180.027H618.21Z" fill="black"/>
<path d="M613.628 185.029C612.733 185.029 612.733 186.42 613.628 186.42H653.949C655.802 186.42 657.674 186.485 659.527 186.42C659.555 186.42 659.583 186.42 659.606 186.42C660.5 186.42 660.5 185.029 659.606 185.029H619.285C617.432 185.029 615.56 184.964 613.706 185.029C613.679 185.029 613.651 185.029 613.628 185.029Z" fill="black"/>
<path d="M609.05 190.031C608.156 190.031 608.156 191.422 609.05 191.422H645.354C647.295 191.422 649.255 191.491 651.197 191.422C651.224 191.422 651.252 191.422 651.28 191.422C652.174 191.422 652.174 190.031 651.28 190.031H614.976C613.035 190.031 611.075 189.961 609.133 190.031C609.106 190.031 609.078 190.031 609.05 190.031Z" fill="black"/>
<path d="M604.468 195.033C603.573 195.033 603.573 196.424 604.468 196.424H648.611C650.641 196.424 650.664 196.498 652.693 196.424C652.721 196.424 652.753 196.424 652.781 196.424C653.675 196.424 653.675 195.033 652.781 195.033H610.658C608.628 195.033 606.58 194.959 604.551 195.033C604.523 195.033 604.491 195.033 604.463 195.033H604.468Z" fill="black"/>
<path d="M599.885 200.035C598.99 200.035 598.99 201.426 599.885 201.426H645.942C648.059 201.426 650.195 201.505 652.308 201.426C652.341 201.426 652.368 201.426 652.401 201.426C653.295 201.426 653.295 200.035 652.401 200.035H606.344C604.226 200.035 602.09 199.956 599.977 200.035C599.945 200.035 599.917 200.035 599.885 200.035Z" fill="black"/>
<path d="M595.307 205.037C594.413 205.037 594.413 206.428 595.307 206.428H643.273C645.479 206.428 655.288 206.511 657.493 206.428C657.526 206.428 657.558 206.428 657.591 206.428C658.485 206.428 658.485 205.037 657.591 205.037H602.035C599.829 205.037 597.605 204.954 595.404 205.037C595.372 205.037 595.339 205.037 595.307 205.037Z" fill="black"/>
<path d="M653.601 210.037H603.721C601.427 210.037 599.115 209.954 596.826 210.037C596.794 210.037 596.761 210.037 596.724 210.037C595.83 210.037 595.83 211.428 596.724 211.428H646.604C648.898 211.428 651.21 211.511 653.499 211.428C653.531 211.428 653.564 211.428 653.601 211.428C654.495 211.428 654.495 210.037 653.601 210.037Z" fill="black"/>
<path d="M678 470.497C678 470.497 733.975 403.674 749 400C745.702 434.969 748.751 486 748.751 486L678 470.497Z" fill="#7ED1FF" stroke="black" stroke-width="2" stroke-miterlimit="10"/>
<path d="M419.507 337.274L402.283 315L394.402 342.022C374.768 360.453 336.912 400.058 329.28 407.708C321.648 415.357 305.913 423.09 299 426L334.672 418.101L401.217 353.427C402.448 352.23 404.031 351.462 405.733 351.234L414.238 350.098C420.348 349.281 423.278 342.151 419.507 337.274Z" fill="#7ED1FF" stroke="black" stroke-width="2"/>
<path d="M1121 411L1042 235L1183 404L1121 411Z" fill="white" stroke="black" stroke-width="2"/>
</g>
<rect x="1" y="465" width="1391" height="75" fill="white"/>
<defs>
<clipPath id="clip0_815_242">
<rect width="1073" height="482" fill="white" transform="translate(218)"/>
</clipPath>
</defs>
</svg>
